<?xml version="1.0" encoding="UTF-8" standalone="no"?>
<!DOCTYPE svg PUBLIC "-//W3C//DTD SVG 1.0//EN"
 "http://www.w3.org/TR/2001/REC-SVG-20010904/DTD/svg10.dtd" [
 <!ATTLIST svg xmlns:xlink CDATA #FIXED "http://www.w3.org/1999/xlink">
]>
<!-- Generated by dot version 2.6 (Sun Aug 28 13:14:52 UTC 2005)
     For user: Bill Gates -->
<!-- Title: g Pages: 1 -->
<svg width="2256px" height="416px"
 viewBox = "0 0 1625 300"
 xmlns="http://www.w3.org/2000/svg" xmlns:xlink="http://www.w3.org/1999/xlink">
<g id="graph0" class="graph" style="font-family:Times-Roman;font-size:14.00;">
<title>g</title>
<!-- node0 -->
<g id="node1" class="node"><title>node0</title>
<polygon style="fill:none;stroke:black;" points="7,240 143,240 143,107 7,107 7,240"/>
<text text-anchor="middle" x="75" y="131">real address: 0</text>
<polyline style="fill:none;stroke:black;" points="7,140 143,140 "/>
<text text-anchor="middle" x="75" y="164">prev: 0</text>
<polyline style="fill:none;stroke:black;" points="7,174 143,174 "/>
<text text-anchor="middle" x="75" y="197">value: 0</text>
<polyline style="fill:none;stroke:black;" points="7,207 143,207 "/>
<text text-anchor="middle" x="75" y="231">next: 0</text>
</g>
<!-- node1 -->
<g id="node2" class="node"><title>node1</title>
<polygon style="fill:none;stroke:black;" points="168,240 304,240 304,107 168,107 168,240"/>
<text text-anchor="middle" x="236" y="131">real address: 1</text>
<polyline style="fill:none;stroke:black;" points="168,140 304,140 "/>
<text text-anchor="middle" x="236" y="164">prev: 0</text>
<polyline style="fill:none;stroke:black;" points="168,174 304,174 "/>
<text text-anchor="middle" x="236" y="197">value: 10</text>
<polyline style="fill:none;stroke:black;" points="168,207 304,207 "/>
<text text-anchor="middle" x="236" y="231">next: 0</text>
</g>
<!-- node0&#45;&gt;node1 -->
<g id="edge9" class="edge"><title>node0&#45;&gt;node1</title>
</g>
<!-- node1&#45;&gt;node0 -->
<g id="edge19" class="edge"><title>node1&#45;&gt;node0</title>
<path style="fill:none;stroke:black;" d="M157,165C161,165 164,164 168,164"/>
<polygon style="fill:black;stroke:black;" points="157,169 143,167 157,161 157,169"/>
</g>
<!-- node1&#45;&gt;node0 -->
<g id="edge21" class="edge"><title>node1&#45;&gt;node0</title>
<path style="fill:none;stroke:black;" d="M157,199C165,201 175,204 183,207"/>
<polygon style="fill:black;stroke:black;" points="156,203 143,194 158,194 156,203"/>
</g>
<!-- node2 -->
<g id="node3" class="node"><title>node2</title>
<polygon style="fill:none;stroke:black;" points="329,240 465,240 465,107 329,107 329,240"/>
<text text-anchor="middle" x="397" y="131">real address: 2</text>
<polyline style="fill:none;stroke:black;" points="329,140 465,140 "/>
<text text-anchor="middle" x="397" y="164">prev: 1</text>
<polyline style="fill:none;stroke:black;" points="329,174 465,174 "/>
<text text-anchor="middle" x="397" y="197">value: &#45;1</text>
<polyline style="fill:none;stroke:black;" points="329,207 465,207 "/>
<text text-anchor="middle" x="397" y="231">next: 3</text>
</g>
<!-- node1&#45;&gt;node2 -->
<g id="edge10" class="edge"><title>node1&#45;&gt;node2</title>
</g>
<!-- node2&#45;&gt;node1 -->
<g id="edge23" class="edge"><title>node2&#45;&gt;node1</title>
<path style="fill:none;stroke:black;" d="M318,165C322,165 325,164 329,164"/>
<polygon style="fill:black;stroke:black;" points="318,169 304,167 318,161 318,169"/>
</g>
<!-- node3 -->
<g id="node4" class="node"><title>node3</title>
<polygon style="fill:none;stroke:black;" points="490,240 626,240 626,107 490,107 490,240"/>
<text text-anchor="middle" x="558" y="131">real address: 3</text>
<polyline style="fill:none;stroke:black;" points="490,140 626,140 "/>
<text text-anchor="middle" x="558" y="164">prev: 2</text>
<polyline style="fill:none;stroke:black;" points="490,174 626,174 "/>
<text text-anchor="middle" x="558" y="197">value: &#45;1</text>
<polyline style="fill:none;stroke:black;" points="490,207 626,207 "/>
<text text-anchor="middle" x="558" y="231">next: 4</text>
</g>
<!-- node2&#45;&gt;node3 -->
<g id="edge25" class="edge"><title>node2&#45;&gt;node3</title>
<path style="fill:none;stroke:black;" d="M450,207C458,204 468,201 476,199"/>
<polygon style="fill:black;stroke:black;" points="475,194 490,194 478,203 475,194"/>
</g>
<!-- node2&#45;&gt;node3 -->
<g id="edge11" class="edge"><title>node2&#45;&gt;node3</title>
</g>
<!-- node3&#45;&gt;node2 -->
<g id="edge27" class="edge"><title>node3&#45;&gt;node2</title>
<path style="fill:none;stroke:black;" d="M479,165C483,165 486,164 490,164"/>
<polygon style="fill:black;stroke:black;" points="479,169 465,167 479,161 479,169"/>
</g>
<!-- node4 -->
<g id="node5" class="node"><title>node4</title>
<polygon style="fill:none;stroke:black;" points="651,240 788,240 788,107 651,107 651,240"/>
<text text-anchor="middle" x="719" y="131">real address: 4</text>
<polyline style="fill:none;stroke:black;" points="651,140 788,140 "/>
<text text-anchor="middle" x="719" y="164">prev: 3</text>
<polyline style="fill:none;stroke:black;" points="651,174 788,174 "/>
<text text-anchor="middle" x="719" y="197">value: &#45;1</text>
<polyline style="fill:none;stroke:black;" points="651,207 788,207 "/>
<text text-anchor="middle" x="719" y="231">next: 5</text>
</g>
<!-- node3&#45;&gt;node4 -->
<g id="edge29" class="edge"><title>node3&#45;&gt;node4</title>
<path style="fill:none;stroke:black;" d="M611,207C619,204 629,201 638,199"/>
<polygon style="fill:black;stroke:black;" points="636,194 651,194 639,203 636,194"/>
</g>
<!-- node3&#45;&gt;node4 -->
<g id="edge12" class="edge"><title>node3&#45;&gt;node4</title>
</g>
<!-- node4&#45;&gt;node3 -->
<g id="edge31" class="edge"><title>node4&#45;&gt;node3</title>
<path style="fill:none;stroke:black;" d="M640,165C644,165 647,164 651,164"/>
<polygon style="fill:black;stroke:black;" points="640,169 626,167 640,161 640,169"/>
</g>
<!-- node5 -->
<g id="node6" class="node"><title>node5</title>
<polygon style="fill:none;stroke:black;" points="813,240 949,240 949,107 813,107 813,240"/>
<text text-anchor="middle" x="881" y="131">real address: 5</text>
<polyline style="fill:none;stroke:black;" points="813,140 949,140 "/>
<text text-anchor="middle" x="881" y="164">prev: 4</text>
<polyline style="fill:none;stroke:black;" points="813,174 949,174 "/>
<text text-anchor="middle" x="881" y="197">value: &#45;1</text>
<polyline style="fill:none;stroke:black;" points="813,207 949,207 "/>
<text text-anchor="middle" x="881" y="231">next: 6</text>
</g>
<!-- node4&#45;&gt;node5 -->
<g id="edge33" class="edge"><title>node4&#45;&gt;node5</title>
<path style="fill:none;stroke:black;" d="M772,207C781,204 790,201 799,199"/>
<polygon style="fill:black;stroke:black;" points="797,194 813,194 800,203 797,194"/>
</g>
<!-- node4&#45;&gt;node5 -->
<g id="edge13" class="edge"><title>node4&#45;&gt;node5</title>
</g>
<!-- node5&#45;&gt;node4 -->
<g id="edge35" class="edge"><title>node5&#45;&gt;node4</title>
<path style="fill:none;stroke:black;" d="M801,165C806,165 808,164 813,164"/>
<polygon style="fill:black;stroke:black;" points="801,169 788,167 801,161 801,169"/>
</g>
<!-- node6 -->
<g id="node7" class="node"><title>node6</title>
<polygon style="fill:none;stroke:black;" points="974,240 1110,240 1110,107 974,107 974,240"/>
<text text-anchor="middle" x="1042" y="131">real address: 6</text>
<polyline style="fill:none;stroke:black;" points="974,140 1110,140 "/>
<text text-anchor="middle" x="1042" y="164">prev: 5</text>
<polyline style="fill:none;stroke:black;" points="974,174 1110,174 "/>
<text text-anchor="middle" x="1042" y="197">value: &#45;1</text>
<polyline style="fill:none;stroke:black;" points="974,207 1110,207 "/>
<text text-anchor="middle" x="1042" y="231">next: 7</text>
</g>
<!-- node5&#45;&gt;node6 -->
<g id="edge37" class="edge"><title>node5&#45;&gt;node6</title>
<path style="fill:none;stroke:black;" d="M933,207C942,204 951,201 960,199"/>
<polygon style="fill:black;stroke:black;" points="958,194 974,194 961,203 958,194"/>
</g>
<!-- node5&#45;&gt;node6 -->
<g id="edge14" class="edge"><title>node5&#45;&gt;node6</title>
</g>
<!-- node6&#45;&gt;node5 -->
<g id="edge39" class="edge"><title>node6&#45;&gt;node5</title>
<path style="fill:none;stroke:black;" d="M963,165C967,165 969,164 974,164"/>
<polygon style="fill:black;stroke:black;" points="963,169 949,167 963,161 963,169"/>
</g>
<!-- node7 -->
<g id="node8" class="node"><title>node7</title>
<polygon style="fill:none;stroke:black;" points="1135,240 1271,240 1271,107 1135,107 1135,240"/>
<text text-anchor="middle" x="1203" y="131">real address: 7</text>
<polyline style="fill:none;stroke:black;" points="1135,140 1271,140 "/>
<text text-anchor="middle" x="1203" y="164">prev: 6</text>
<polyline style="fill:none;stroke:black;" points="1135,174 1271,174 "/>
<text text-anchor="middle" x="1203" y="197">value: &#45;1</text>
<polyline style="fill:none;stroke:black;" points="1135,207 1271,207 "/>
<text text-anchor="middle" x="1203" y="231">next: 8</text>
</g>
<!-- node6&#45;&gt;node7 -->
<g id="edge41" class="edge"><title>node6&#45;&gt;node7</title>
<path style="fill:none;stroke:black;" d="M1094,207C1103,204 1113,201 1121,199"/>
<polygon style="fill:black;stroke:black;" points="1119,194 1135,194 1122,203 1119,194"/>
</g>
<!-- node6&#45;&gt;node7 -->
<g id="edge15" class="edge"><title>node6&#45;&gt;node7</title>
</g>
<!-- node7&#45;&gt;node6 -->
<g id="edge43" class="edge"><title>node7&#45;&gt;node6</title>
<path style="fill:none;stroke:black;" d="M1124,165C1128,165 1131,164 1135,164"/>
<polygon style="fill:black;stroke:black;" points="1124,169 1110,167 1124,161 1124,169"/>
</g>
<!-- node8 -->
<g id="node9" class="node"><title>node8</title>
<polygon style="fill:none;stroke:black;" points="1296,240 1432,240 1432,107 1296,107 1296,240"/>
<text text-anchor="middle" x="1364" y="131">real address: 8</text>
<polyline style="fill:none;stroke:black;" points="1296,140 1432,140 "/>
<text text-anchor="middle" x="1364" y="164">prev: 7</text>
<polyline style="fill:none;stroke:black;" points="1296,174 1432,174 "/>
<text text-anchor="middle" x="1364" y="197">value: &#45;1</text>
<polyline style="fill:none;stroke:black;" points="1296,207 1432,207 "/>
<text text-anchor="middle" x="1364" y="231">next: 9</text>
</g>
<!-- node7&#45;&gt;node8 -->
<g id="edge16" class="edge"><title>node7&#45;&gt;node8</title>
</g>
<!-- node7&#45;&gt;node8 -->
<g id="edge45" class="edge"><title>node7&#45;&gt;node8</title>
<path style="fill:none;stroke:black;" d="M1256,207C1264,204 1274,201 1282,199"/>
<polygon style="fill:black;stroke:black;" points="1281,194 1296,194 1283,203 1281,194"/>
</g>
<!-- node8&#45;&gt;node7 -->
<g id="edge47" class="edge"><title>node8&#45;&gt;node7</title>
<path style="fill:none;stroke:black;" d="M1285,165C1289,165 1292,164 1296,164"/>
<polygon style="fill:black;stroke:black;" points="1285,169 1271,167 1285,161 1285,169"/>
</g>
<!-- node9 -->
<g id="node10" class="node"><title>node9</title>
<polygon style="fill:none;stroke:black;" points="1457,240 1593,240 1593,107 1457,107 1457,240"/>
<text text-anchor="middle" x="1525" y="131">real address: 9</text>
<polyline style="fill:none;stroke:black;" points="1457,140 1593,140 "/>
<text text-anchor="middle" x="1525" y="164">prev: 8</text>
<polyline style="fill:none;stroke:black;" points="1457,174 1593,174 "/>
<text text-anchor="middle" x="1525" y="197">value: &#45;1</text>
<polyline style="fill:none;stroke:black;" points="1457,207 1593,207 "/>
<text text-anchor="middle" x="1525" y="231">next: 9</text>
</g>
<!-- node8&#45;&gt;node9 -->
<g id="edge17" class="edge"><title>node8&#45;&gt;node9</title>
</g>
<!-- node8&#45;&gt;node9 -->
<g id="edge49" class="edge"><title>node8&#45;&gt;node9</title>
<path style="fill:none;stroke:black;" d="M1417,207C1425,204 1435,201 1443,199"/>
<polygon style="fill:black;stroke:black;" points="1442,194 1457,194 1444,203 1442,194"/>
</g>
<!-- node9&#45;&gt;node8 -->
<g id="edge51" class="edge"><title>node9&#45;&gt;node8</title>
<path style="fill:none;stroke:black;" d="M1446,165C1450,165 1453,164 1457,164"/>
<polygon style="fill:black;stroke:black;" points="1446,169 1432,167 1446,161 1446,169"/>
</g>
<!-- node9&#45;&gt;node9 -->
<g id="edge53" class="edge"><title>node9&#45;&gt;node9</title>
<path style="fill:none;stroke:black;" d="M1533,240C1565,293 1618,286 1618,199 1618,169 1613,149 1604,138"/>
<polygon style="fill:black;stroke:black;" points="1600,140 1593,128 1607,133 1600,140"/>
</g>
<!-- Free -->
<g id="node12" class="node"><title>Free</title>
<ellipse style="fill:none;stroke:black;" cx="397" cy="32" rx="27" ry="18"/>
<text text-anchor="middle" x="397" y="39">Free</text>
</g>
<!-- Free&#45;&gt;node2 -->
<g id="edge3" class="edge"><title>Free&#45;&gt;node2</title>
<path style="fill:none;stroke:black;" d="M397,57C397,67 397,79 397,93"/>
<polygon style="fill:black;stroke:black;" points="403,93 397,107 393,93 403,93"/>
</g>
<!-- Head -->
<g id="node14" class="node"><title>Head</title>
<ellipse style="fill:none;stroke:black;" cx="165" cy="32" rx="28" ry="18"/>
<text text-anchor="middle" x="165" y="39">Head</text>
</g>
<!-- Head&#45;&gt;node1 -->
<g id="edge5" class="edge"><title>Head&#45;&gt;node1</title>
<path style="fill:none;stroke:black;" d="M178,56C183,67 190,81 197,94"/>
<polygon style="fill:black;stroke:black;" points="201,92 203,107 193,96 201,92"/>
</g>
<!-- Tail -->
<g id="node16" class="node"><title>Tail</title>
<ellipse style="fill:none;stroke:black;" cx="267" cy="32" rx="27" ry="18"/>
<text text-anchor="middle" x="267" y="39">Tail</text>
</g>
<!-- Tail&#45;&gt;node1 -->
<g id="edge7" class="edge"><title>Tail&#45;&gt;node1</title>
<path style="fill:none;stroke:black;" d="M261,57C260,67 256,79 254,93"/>
<polygon style="fill:black;stroke:black;" points="258,94 251,107 250,93 258,94"/>
</g>
</g>
</svg>
