<?xml version="1.0" encoding="UTF-8" standalone="no"?>
<!DOCTYPE svg PUBLIC "-//W3C//DTD SVG 1.0//EN"
 "http://www.w3.org/TR/2001/REC-SVG-20010904/DTD/svg10.dtd" [
 <!ATTLIST svg xmlns:xlink CDATA #FIXED "http://www.w3.org/1999/xlink">
]>
<!-- Generated by dot version 2.6 (Sun Aug 28 13:14:52 UTC 2005)
     For user: Bill Gates -->
<!-- Title: g Pages: 1 -->
<svg width="2286px" height="416px"
 viewBox = "0 0 1646 300"
 xmlns="http://www.w3.org/2000/svg" xmlns:xlink="http://www.w3.org/1999/xlink">
<g id="graph0" class="graph" style="font-family:Times-Roman;font-size:14.00;">
<title>g</title>
<!-- node0 -->
<g id="node1" class="node"><title>node0</title>
<polygon style="fill:none;stroke:black;" points="7,240 143,240 143,107 7,107 7,240"/>
<text text-anchor="middle" x="75" y="131">real address: 0</text>
<polyline style="fill:none;stroke:black;" points="7,140 143,140 "/>
<text text-anchor="middle" x="75" y="164">prev: 0</text>
<polyline style="fill:none;stroke:black;" points="7,174 143,174 "/>
<text text-anchor="middle" x="75" y="197">value: 0</text>
<polyline style="fill:none;stroke:black;" points="7,207 143,207 "/>
<text text-anchor="middle" x="75" y="231">next: 0</text>
</g>
<!-- node1 -->
<g id="node2" class="node"><title>node1</title>
<polygon style="fill:none;stroke:black;" points="189,240 325,240 325,107 189,107 189,240"/>
<text text-anchor="middle" x="257" y="131">real address: 1</text>
<polyline style="fill:none;stroke:black;" points="189,140 325,140 "/>
<text text-anchor="middle" x="257" y="164">prev: 0</text>
<polyline style="fill:none;stroke:black;" points="189,174 325,174 "/>
<text text-anchor="middle" x="257" y="197">value: &#45;1</text>
<polyline style="fill:none;stroke:black;" points="189,207 325,207 "/>
<text text-anchor="middle" x="257" y="231">next: 2</text>
</g>
<!-- node0&#45;&gt;node1 -->
<g id="edge9" class="edge"><title>node0&#45;&gt;node1</title>
</g>
<!-- node1&#45;&gt;node0 -->
<g id="edge19" class="edge"><title>node1&#45;&gt;node0</title>
<path style="fill:none;stroke:black;" d="M157,167C168,165 178,165 189,164"/>
<polygon style="fill:black;stroke:black;" points="157,171 143,168 157,163 157,171"/>
</g>
<!-- node2 -->
<g id="node3" class="node"><title>node2</title>
<polygon style="fill:none;stroke:black;" points="350,240 486,240 486,107 350,107 350,240"/>
<text text-anchor="middle" x="418" y="131">real address: 2</text>
<polyline style="fill:none;stroke:black;" points="350,140 486,140 "/>
<text text-anchor="middle" x="418" y="164">prev: 1</text>
<polyline style="fill:none;stroke:black;" points="350,174 486,174 "/>
<text text-anchor="middle" x="418" y="197">value: &#45;1</text>
<polyline style="fill:none;stroke:black;" points="350,207 486,207 "/>
<text text-anchor="middle" x="418" y="231">next: 3</text>
</g>
<!-- node1&#45;&gt;node2 -->
<g id="edge21" class="edge"><title>node1&#45;&gt;node2</title>
<path style="fill:none;stroke:black;" d="M310,207C318,204 328,201 336,199"/>
<polygon style="fill:black;stroke:black;" points="335,194 350,194 338,203 335,194"/>
</g>
<!-- node1&#45;&gt;node2 -->
<g id="edge10" class="edge"><title>node1&#45;&gt;node2</title>
</g>
<!-- node2&#45;&gt;node1 -->
<g id="edge23" class="edge"><title>node2&#45;&gt;node1</title>
<path style="fill:none;stroke:black;" d="M339,165C343,165 346,164 350,164"/>
<polygon style="fill:black;stroke:black;" points="339,169 325,167 339,161 339,169"/>
</g>
<!-- node3 -->
<g id="node4" class="node"><title>node3</title>
<polygon style="fill:none;stroke:black;" points="511,240 647,240 647,107 511,107 511,240"/>
<text text-anchor="middle" x="579" y="131">real address: 3</text>
<polyline style="fill:none;stroke:black;" points="511,140 647,140 "/>
<text text-anchor="middle" x="579" y="164">prev: 2</text>
<polyline style="fill:none;stroke:black;" points="511,174 647,174 "/>
<text text-anchor="middle" x="579" y="197">value: &#45;1</text>
<polyline style="fill:none;stroke:black;" points="511,207 647,207 "/>
<text text-anchor="middle" x="579" y="231">next: 4</text>
</g>
<!-- node2&#45;&gt;node3 -->
<g id="edge25" class="edge"><title>node2&#45;&gt;node3</title>
<path style="fill:none;stroke:black;" d="M471,207C479,204 489,201 497,199"/>
<polygon style="fill:black;stroke:black;" points="496,194 511,194 499,203 496,194"/>
</g>
<!-- node2&#45;&gt;node3 -->
<g id="edge11" class="edge"><title>node2&#45;&gt;node3</title>
</g>
<!-- node3&#45;&gt;node2 -->
<g id="edge27" class="edge"><title>node3&#45;&gt;node2</title>
<path style="fill:none;stroke:black;" d="M500,165C504,165 507,164 511,164"/>
<polygon style="fill:black;stroke:black;" points="500,169 486,167 500,161 500,169"/>
</g>
<!-- node4 -->
<g id="node5" class="node"><title>node4</title>
<polygon style="fill:none;stroke:black;" points="672,240 808,240 808,107 672,107 672,240"/>
<text text-anchor="middle" x="740" y="131">real address: 4</text>
<polyline style="fill:none;stroke:black;" points="672,140 808,140 "/>
<text text-anchor="middle" x="740" y="164">prev: 3</text>
<polyline style="fill:none;stroke:black;" points="672,174 808,174 "/>
<text text-anchor="middle" x="740" y="197">value: &#45;1</text>
<polyline style="fill:none;stroke:black;" points="672,207 808,207 "/>
<text text-anchor="middle" x="740" y="231">next: 5</text>
</g>
<!-- node3&#45;&gt;node4 -->
<g id="edge29" class="edge"><title>node3&#45;&gt;node4</title>
<path style="fill:none;stroke:black;" d="M632,207C640,204 650,201 658,199"/>
<polygon style="fill:black;stroke:black;" points="657,194 672,194 660,203 657,194"/>
</g>
<!-- node3&#45;&gt;node4 -->
<g id="edge12" class="edge"><title>node3&#45;&gt;node4</title>
</g>
<!-- node4&#45;&gt;node3 -->
<g id="edge31" class="edge"><title>node4&#45;&gt;node3</title>
<path style="fill:none;stroke:black;" d="M661,165C665,165 668,164 672,164"/>
<polygon style="fill:black;stroke:black;" points="661,169 647,167 661,161 661,169"/>
</g>
<!-- node5 -->
<g id="node6" class="node"><title>node5</title>
<polygon style="fill:none;stroke:black;" points="833,240 970,240 970,107 833,107 833,240"/>
<text text-anchor="middle" x="901" y="131">real address: 5</text>
<polyline style="fill:none;stroke:black;" points="833,140 970,140 "/>
<text text-anchor="middle" x="901" y="164">prev: 4</text>
<polyline style="fill:none;stroke:black;" points="833,174 970,174 "/>
<text text-anchor="middle" x="901" y="197">value: &#45;1</text>
<polyline style="fill:none;stroke:black;" points="833,207 970,207 "/>
<text text-anchor="middle" x="901" y="231">next: 6</text>
</g>
<!-- node4&#45;&gt;node5 -->
<g id="edge33" class="edge"><title>node4&#45;&gt;node5</title>
<path style="fill:none;stroke:black;" d="M793,207C801,204 811,201 820,199"/>
<polygon style="fill:black;stroke:black;" points="818,194 833,194 821,203 818,194"/>
</g>
<!-- node4&#45;&gt;node5 -->
<g id="edge13" class="edge"><title>node4&#45;&gt;node5</title>
</g>
<!-- node5&#45;&gt;node4 -->
<g id="edge35" class="edge"><title>node5&#45;&gt;node4</title>
<path style="fill:none;stroke:black;" d="M822,165C826,165 829,164 833,164"/>
<polygon style="fill:black;stroke:black;" points="822,169 808,167 822,161 822,169"/>
</g>
<!-- node6 -->
<g id="node7" class="node"><title>node6</title>
<polygon style="fill:none;stroke:black;" points="995,240 1131,240 1131,107 995,107 995,240"/>
<text text-anchor="middle" x="1063" y="131">real address: 6</text>
<polyline style="fill:none;stroke:black;" points="995,140 1131,140 "/>
<text text-anchor="middle" x="1063" y="164">prev: 5</text>
<polyline style="fill:none;stroke:black;" points="995,174 1131,174 "/>
<text text-anchor="middle" x="1063" y="197">value: &#45;1</text>
<polyline style="fill:none;stroke:black;" points="995,207 1131,207 "/>
<text text-anchor="middle" x="1063" y="231">next: 7</text>
</g>
<!-- node5&#45;&gt;node6 -->
<g id="edge37" class="edge"><title>node5&#45;&gt;node6</title>
<path style="fill:none;stroke:black;" d="M954,207C963,204 972,201 981,199"/>
<polygon style="fill:black;stroke:black;" points="979,194 995,194 982,203 979,194"/>
</g>
<!-- node5&#45;&gt;node6 -->
<g id="edge14" class="edge"><title>node5&#45;&gt;node6</title>
</g>
<!-- node6&#45;&gt;node5 -->
<g id="edge39" class="edge"><title>node6&#45;&gt;node5</title>
<path style="fill:none;stroke:black;" d="M983,165C988,165 990,164 995,164"/>
<polygon style="fill:black;stroke:black;" points="983,169 970,167 983,161 983,169"/>
</g>
<!-- node7 -->
<g id="node8" class="node"><title>node7</title>
<polygon style="fill:none;stroke:black;" points="1156,240 1292,240 1292,107 1156,107 1156,240"/>
<text text-anchor="middle" x="1224" y="131">real address: 7</text>
<polyline style="fill:none;stroke:black;" points="1156,140 1292,140 "/>
<text text-anchor="middle" x="1224" y="164">prev: 6</text>
<polyline style="fill:none;stroke:black;" points="1156,174 1292,174 "/>
<text text-anchor="middle" x="1224" y="197">value: &#45;1</text>
<polyline style="fill:none;stroke:black;" points="1156,207 1292,207 "/>
<text text-anchor="middle" x="1224" y="231">next: 8</text>
</g>
<!-- node6&#45;&gt;node7 -->
<g id="edge41" class="edge"><title>node6&#45;&gt;node7</title>
<path style="fill:none;stroke:black;" d="M1115,207C1124,204 1133,201 1142,199"/>
<polygon style="fill:black;stroke:black;" points="1140,194 1156,194 1143,203 1140,194"/>
</g>
<!-- node6&#45;&gt;node7 -->
<g id="edge15" class="edge"><title>node6&#45;&gt;node7</title>
</g>
<!-- node7&#45;&gt;node6 -->
<g id="edge43" class="edge"><title>node7&#45;&gt;node6</title>
<path style="fill:none;stroke:black;" d="M1145,165C1149,165 1151,164 1156,164"/>
<polygon style="fill:black;stroke:black;" points="1145,169 1131,167 1145,161 1145,169"/>
</g>
<!-- node8 -->
<g id="node9" class="node"><title>node8</title>
<polygon style="fill:none;stroke:black;" points="1317,240 1453,240 1453,107 1317,107 1317,240"/>
<text text-anchor="middle" x="1385" y="131">real address: 8</text>
<polyline style="fill:none;stroke:black;" points="1317,140 1453,140 "/>
<text text-anchor="middle" x="1385" y="164">prev: 7</text>
<polyline style="fill:none;stroke:black;" points="1317,174 1453,174 "/>
<text text-anchor="middle" x="1385" y="197">value: &#45;1</text>
<polyline style="fill:none;stroke:black;" points="1317,207 1453,207 "/>
<text text-anchor="middle" x="1385" y="231">next: 9</text>
</g>
<!-- node7&#45;&gt;node8 -->
<g id="edge16" class="edge"><title>node7&#45;&gt;node8</title>
</g>
<!-- node7&#45;&gt;node8 -->
<g id="edge45" class="edge"><title>node7&#45;&gt;node8</title>
<path style="fill:none;stroke:black;" d="M1276,207C1285,204 1295,201 1303,199"/>
<polygon style="fill:black;stroke:black;" points="1301,194 1317,194 1304,203 1301,194"/>
</g>
<!-- node8&#45;&gt;node7 -->
<g id="edge47" class="edge"><title>node8&#45;&gt;node7</title>
<path style="fill:none;stroke:black;" d="M1306,165C1310,165 1313,164 1317,164"/>
<polygon style="fill:black;stroke:black;" points="1306,169 1292,167 1306,161 1306,169"/>
</g>
<!-- node9 -->
<g id="node10" class="node"><title>node9</title>
<polygon style="fill:none;stroke:black;" points="1478,240 1614,240 1614,107 1478,107 1478,240"/>
<text text-anchor="middle" x="1546" y="131">real address: 9</text>
<polyline style="fill:none;stroke:black;" points="1478,140 1614,140 "/>
<text text-anchor="middle" x="1546" y="164">prev: 8</text>
<polyline style="fill:none;stroke:black;" points="1478,174 1614,174 "/>
<text text-anchor="middle" x="1546" y="197">value: &#45;1</text>
<polyline style="fill:none;stroke:black;" points="1478,207 1614,207 "/>
<text text-anchor="middle" x="1546" y="231">next: 9</text>
</g>
<!-- node8&#45;&gt;node9 -->
<g id="edge17" class="edge"><title>node8&#45;&gt;node9</title>
</g>
<!-- node8&#45;&gt;node9 -->
<g id="edge49" class="edge"><title>node8&#45;&gt;node9</title>
<path style="fill:none;stroke:black;" d="M1438,207C1446,204 1456,201 1464,199"/>
<polygon style="fill:black;stroke:black;" points="1463,194 1478,194 1465,203 1463,194"/>
</g>
<!-- node9&#45;&gt;node8 -->
<g id="edge51" class="edge"><title>node9&#45;&gt;node8</title>
<path style="fill:none;stroke:black;" d="M1467,165C1471,165 1474,164 1478,164"/>
<polygon style="fill:black;stroke:black;" points="1467,169 1453,167 1467,161 1467,169"/>
</g>
<!-- node9&#45;&gt;node9 -->
<g id="edge53" class="edge"><title>node9&#45;&gt;node9</title>
<path style="fill:none;stroke:black;" d="M1554,240C1586,293 1639,286 1639,199 1639,169 1633,149 1625,138"/>
<polygon style="fill:black;stroke:black;" points="1621,140 1614,128 1628,133 1621,140"/>
</g>
<!-- Free -->
<g id="node12" class="node"><title>Free</title>
<ellipse style="fill:none;stroke:black;" cx="257" cy="32" rx="27" ry="18"/>
<text text-anchor="middle" x="257" y="39">Free</text>
</g>
<!-- Free&#45;&gt;node1 -->
<g id="edge3" class="edge"><title>Free&#45;&gt;node1</title>
<path style="fill:none;stroke:black;" d="M257,57C257,67 257,79 257,93"/>
<polygon style="fill:black;stroke:black;" points="263,93 257,107 253,93 263,93"/>
</g>
<!-- Head -->
<g id="node14" class="node"><title>Head</title>
<ellipse style="fill:none;stroke:black;" cx="56" cy="32" rx="28" ry="18"/>
<text text-anchor="middle" x="56" y="39">Head</text>
</g>
<!-- Head&#45;&gt;node0 -->
<g id="edge5" class="edge"><title>Head&#45;&gt;node0</title>
<path style="fill:none;stroke:black;" d="M60,57C61,67 63,79 64,93"/>
<polygon style="fill:black;stroke:black;" points="68,93 67,107 60,94 68,93"/>
</g>
<!-- Tail -->
<g id="node16" class="node"><title>Tail</title>
<ellipse style="fill:none;stroke:black;" cx="157" cy="32" rx="27" ry="18"/>
<text text-anchor="middle" x="157" y="39">Tail</text>
</g>
<!-- Tail&#45;&gt;node0 -->
<g id="edge7" class="edge"><title>Tail&#45;&gt;node0</title>
<path style="fill:none;stroke:black;" d="M143,56C136,67 129,81 121,94"/>
<polygon style="fill:black;stroke:black;" points="125,97 114,107 117,93 125,97"/>
</g>
</g>
</svg>
